<svg width="24" height="24" viewBox="0 0 24 24" fill="none" xmlns="http://www.w3.org/2000/svg">
<path d="M12 24C18.6274 24 24 18.6274 24 12C24 5.37258 18.6274 0 12 0C5.37258 0 0 5.37258 0 12C0 18.6274 5.37258 24 12 24Z" fill="url(#paint0_linear_12_43)"/>
<path d="M9.8 17.5C9.41124 17.5 9.4773 17.3532 9.34322 16.9831L8.2 13.2206L17 8" fill="#C8DAEA"/>
<path d="M9.8 17.5C10.1 17.5 10.2326 17.3628 10.4 17.2L12 15.6442L10.0042 14.4407" fill="#A9C9DD"/>
<path d="M10.004 14.441L14.84 18.0139C15.3918 18.3184 15.7901 18.1607 15.9276 17.5015L17.8961 8.22524C18.0976 7.41722 17.5881 7.05074 17.0602 7.29042L5.50116 11.7475C4.71215 12.064 4.71675 12.5042 5.35734 12.7003L8.32364 13.6262L15.1909 9.29365C15.5151 9.09706 15.8127 9.20275 15.5685 9.41949" fill="url(#paint1_linear_12_43)"/>
<defs>
<linearGradient id="paint0_linear_12_43" x1="9.0012" y1="1.0008" x2="3.0012" y2="15" gradientUnits="userSpaceOnUse">
<stop stop-color="#37AEE2"/>
<stop offset="1" stop-color="#1E96C8"/>
</linearGradient>
<linearGradient id="paint1_linear_12_43" x1="10.4978" y1="12.7371" x2="11.78" y2="16.8846" gradientUnits="userSpaceOnUse">
<stop stop-color="#EFF7FC"/>
<stop offset="1" stop-color="white"/>
</linearGradient>
</defs>
</svg>
